<?xml version="1.0" encoding="utf-8"?>
<?xml-stylesheet type="text/xsl" href="rss1.xsl"?>
<rss version="2.0" xmlns:atom="http://www.w3.org/2005/Atom" xmlns:content="http://purl.org/rss/1.0/modules/content/" xmlns:dc="http://purl.org/dc/elements/1.1/" xmlns:media="http://search.yahoo.com/mrss/">
<channel>
 <title>Getty</title>
 <link>http://www.gettyimg.com/</link>
 <atom:link href="http://www.gettyimg.com/" rel="self" type="application/rss+xml" />

 
                <item>
                <title><![CDATA[【Music Videos】GZA Feat. Inspectah Deck - Cold World (Version Explicit) (1080p) (Clean)]]></title>
                <link><![CDATA[https://sharemania.us/threads/gza-feat-inspectah-deck-cold-world-version-explicit-1080p-clean.242838/]]></link>
                <description><![CDATA[<article>
<blockquote class="messageText SelectQuoteContainer ugc baseHtml">
<img src="https://i.ibb.co/qBbpr8v/GZA-Feat-Inspectah-Deck-Cold-Worl-Version-Explicit-1080p-mp4-thumbs-2024-04-22-12-48-36.jpg" class="bbCodeImage LbImage" alt="[​IMG]" data-url="https://i.ibb.co/qBbpr8v/GZA-Feat-Inspectah-Deck-Cold-Worl-Version-Explicit-1080p-mp4-thumbs-2024-04-22-12-48-36.jpg" style=""><br>
<br>
<div class="ToggleTriggerAnchor bbCodeSpoilerContainer">
<button type="button" class="button bbCodeSpoilerButton ToggleTrigger Tooltip JsOnly" data-target="> .SpoilerTarget"><span>Spoiler: <span class="SpoilerTitle">MediaInfo</span></span></button>
<div class="SpoilerTarget bbCodeSpoilerText">GZA Feat. Inspectah Deck - Cold World (Version Explicit) (1080p).mp4<br>
Format : MPEG-4<br>
Format profile : Base Media / Version 2<br>
Codec ID : mp42 (mp42/mp41)<br>
File size : 380 MiB<br>
Duration : 5 min 12 s<br>
Overall bit rate mode : Variable<br>
Overall bit rate : 10.2 Mb/s<br>
Frame rate : 30.000 FPS<br>
Encoded date : 2024-04-22 05:39:15 UTC<br>
Tagged date : 2024-04-22 05:40:24 UTC<br>
TIM : 00:00:00:00<br>
TSC : 30<br>
TSZ : 1<br>
<br>
Video<br>
ID : 1<br>
Format : AVC<br>
Format/Info : Advanced Video Codec<br>
Format profile : Main@L4.1<br>
Format settings : CABAC / 4 Ref Frames<br>
Format settings, CABAC : Yes<br>
Format settings, Reference : 4 frames<br>
Codec ID : avc1<br>
Codec ID/Info : Advanced Video Coding<br>
Duration : 5 min 12 s<br>
Bit rate : 9 863 kb/s<br>
Width : 1 920 pixels<br>
Height : 1 080 pixels<br>
Display aspect ratio : 16:9<br>
Frame rate mode : Constant<br>
Frame rate : 30.000 FPS<br>
Color space : YUV<br>
Chroma subsampling : 4:2:0<br>
Bit depth : 8 bits<br>
Scan type : Progressive<br>
Bits/(Pixel*Frame) : 0.159<br>
Stream size : 368 MiB (97%)<br>
Language : English<br>
Encoded date : 2024-04-22 05:39:15 UTC<br>
Tagged date : 2024-04-22 05:39:15 UTC<br>
Color range : Limited<br>
Color primaries : BT.709<br>
Transfer characteristics : BT.709<br>
Matrix coefficients : BT.709<br>
Codec configuration box : avcC<br>
<br>
Audio<br>
ID : 2<br>
Format : AAC LC<br>
Format/Info : Advanced Audio Codec Low Complexity<br>
Codec ID : mp4a-40-2<br>
Duration : 5 min 12 s<br>
Source duration : 5 min 12 s<br>
Bit rate mode : Variable<br>
Bit rate : 317 kb/s<br>
Maximum bit rate : 376 kb/s<br>
Channel(s) : 2 channels<br>
Channel layout : L R<br>
Sampling rate : 48.0 kHz<br>
Frame rate : 46.875 FPS (1024 SPF)<br>
Compression mode : Lossy<br>
Stream size : 11.8 MiB (3%)<br>
Source stream size : 11.8 MiB (3%)<br>
Language : English<br>
Encoded date : 2024-04-22 05:39:16 UTC<br>
Tagged date : 2024-04-22 05:39:16 UTC</div>
</div><br>
<div class="bbCodeBlock bbCodeVfcHH HiddenContent">
<div class="attribution type">Hidden Content:</div>
<blockquote>You must reply before you can see the hidden data contained here.</blockquote>
</div>
<div class="messageTextEndMarker">&nbsp;</div>
</blockquote>
</article>]]></description>
                <author><![CDATA[DJ-RoGeRs-BS]]></author>
                </item>

                
                <item>
                <title><![CDATA[【Requests】[REQ PIC] - Miley Cyrus - Attention Live Booklet]]></title>
                <link><![CDATA[https://sharemania.us/threads/miley-cyrus-attention-live-booklet.242839/]]></link>
                <description><![CDATA[<article>
<blockquote class="messageText SelectQuoteContainer ugc baseHtml">
Hey, there.<br>
<br>
Has anybody got any booklet/digital booklet for Miley's Attention Live album?
<div class="messageTextEndMarker">&nbsp;</div>
</blockquote>
</article>]]></description>
                <author><![CDATA[Leomacae]]></author>
                </item>

                </channel></rss>